PathFileType	4	(X/Y/Z)	C:/Users/beibeiliu/ov580/test_trc/User2\sequence.23_training_dense_left.trc
DataRate	CameraRate	NumFrames	NumMarkers	Units	OrigDataRate	OrigDataStartFrame	OrigNumFrames
120	120	16	19	mm	120	161	257
Frame#	Time	ThumbCMC			ThumbMCP			ThumbIP			ThumbTip			IndexMCP			IndexPIP			IndexTip			MiddleMCP			MiddlePIP			MiddleTip			RingMCP			RingPIP			RingTip			PinkyMCP			PinkyPIP			PinkyTip			BackHand1			BackHand2			BackHand3	
		X0	Y0	Z0	X1	Y1	Z1	X2	Y2	Z2	X3	Y3	Z3	X4	Y4	Z4	X5	Y5	Z5	X6	Y6	Z6	X7	Y7	Z7	X8	Y8	Z8	X9	Y9	Z9	X10	Y10	Z10	X11	Y11	Z11	X12	Y12	Z12	X13	Y13	Z13	X14	Y14	Z14	X15	Y15	Z15	X16	Y16	Z16	X17	Y17	Z17	X18	Y18	Z18	
160	1.33333	-119.126	-36.0387	98.1132	-111.152	-32.9602	58.9695	-118.328	-23.5791	22.536	-130.019	-15.9514	-2.12031	-118.473	32.0002	45.291	-109.624	41.7977	22.5248	-104.543	53.5208	-4.94364	-146.497	30.0435	29.9803	-144.577	33.2215	-0.0929434	-145.032	37.6047	-33.9437	-163.257	0.101269	24.2579	-150.71	-32.2625	15.6152	-144.642	-38.9566	47.818	-178.698	-18.6496	30.2339	-156.325	-44.9461	38.6861	-155.208	-30.9476	69.226	-174.372	5.75647	84.7085	-178.335	-14.2732	116.368	-143.014	-1.24956	110.973	
161	1.34167	-120.582	-32.3971	97.6108	-110.538	-29.6582	56.9427	-120.923	-17.6572	23.2262	-130.177	-10.0613	-0.595598	-116.853	35.5591	50.7593	-109.528	47.2511	28.5091	-107.007	61.1614	-0.249209	-150.03	33.3617	36.1339	-148.679	39.9304	3.69139	-147.444	46.7772	-27.208	-165.704	5.3828	22.1951	-149.826	-20.2329	13.6068	-145.999	-33.4304	49.0016	-180.074	-12.3033	31.3637	-157.238	-36.0097	33.7916	-157.945	-32.4533	66.7903	-178.019	7.16482	85.0401	-184.948	-12.1431	113.847	-148.783	1.19277	109.128	
162	1.35	-123.683	-28.342	96.8799	-114.555	-24.4104	57.0537	-120.32	-15.3668	23.5907	-132.603	-6.74714	2.88884	-119.56	41.1894	53.6291	-114.772	55.9081	26.8247	-109.278	69.3435	3.48258	-152.716	40.8741	35.8365	-147.77	49.2273	4.75458	-147.149	55.6304	-23.851	-164.642	10.913	22.2116	-154.152	-14.6314	12.9959	-147.01	-30.0955	44.5088	-181.221	-7.96662	28.1844	-160.751	-34.6094	32.6908	-159.413	-28.0674	68.1908	-181.611	8.66927	87.8898	-186.057	-9.68617	114.86	-147.239	1.89299	113.278	
163	1.35833	-123.862	-27.2858	95.3153	-117.224	-25.6287	59.0348	-125.061	-10.9867	21.185	-134.377	-6.39032	0.936115	-123.278	41.6954	52.1766	-117.745	56.6345	27.5301	-112.757	69.1061	6.22629	-153.846	41.8579	36.6648	-154.504	48.0447	7.95915	-150.394	57.0929	-21.5941	-170.121	13.373	25.8584	-155.986	-10.283	10.8983	-146.335	-27.0174	44.2761	-182.624	-4.87759	30.7466	-161.704	-30.2643	30.5016	-160.331	-29.4526	61.7525	-185.019	9.85565	89.4138	-185.722	-11.2052	117.64	-149.454	0.689782	113.262	
164	1.36667	-127.524	-27.5032	93.7609	-120.327	-26.3995	57.181	-130.228	-13.0248	23.2794	-136.725	-6.20705	-0.727606	-124.014	42.172	49.6118	-117.436	55.0284	27.433	-115.096	66.2036	4.79024	-155.245	40.8603	38.0648	-156.363	48.0997	5.37657	-156.513	56.1897	-25.931	-171.74	12.5569	24.2683	-160.988	-13.8784	9.97701	-149.418	-28.1616	40.4906	-187.854	-6.65684	30.5405	-162.288	-29.9144	30.8337	-159.669	-26.1051	63.9936	-186.722	7.22843	87.5215	-191.873	-13.2889	117.199	-152.172	3.68066	110.057	
165	1.375	-127.308	-27.8216	92.2661	-123.881	-26.0748	56.0395	-132.234	-13.3757	20.4268	-141.946	-6.7409	-1.55793	-126.691	39.0537	50.6657	-122.614	52.9337	22.6584	-119.43	64.9184	0.176078	-160.758	38.8333	34.4004	-158.952	47.5471	1.738	-155.931	54.9584	-26.7979	-171.096	11.9744	22.5615	-159.497	-15.9005	10.2629	-150.955	-29.5544	40.6918	-186.245	-7.07437	27.8429	-168.753	-34.3627	28.6954	-163.341	-28.4453	60.1457	-189.981	8.42599	87.5647	-190.272	-9.95626	115.291	-157.097	3.00777	109.273	
166	1.38333	-126.909	-29.1732	90.6243	-122.271	-27.8016	52.6257	-130.02	-14.8357	16.8002	-145.691	-8.45324	-1.2487	-128.715	36.864	48.1638	-122.73	50.9519	20.6675	-115.057	63.9916	-4.29693	-161.541	39.6942	30.8321	-160.712	45.5845	0.57446	-161.009	52.4489	-29.9094	-179.124	9.50129	21.8965	-163.14	-15.4207	8.92254	-156.749	-32.0619	39.655	-190.297	-11.9935	25.8173	-166.726	-33.2324	31.3003	-165.607	-31.3405	62.2576	-191.561	7.34418	86.8755	-189.624	-12.4935	115.495	-152.565	2.23555	106.497	
167	1.39167	-127.814	-32.1366	92.0209	-125.011	-27.0094	50.9723	-129.877	-19.3164	17.5557	-144.344	-11.3394	-5.75343	-129.347	38.1045	41.9643	-124.903	48.5672	16.7781	-119.412	59.1256	-8.16166	-165.731	35.5901	29.3792	-164.324	41.1223	0.434686	-167.212	47.3299	-32.5995	-178.219	7.77478	22.8477	-166.106	-20.5688	8.12247	-157.954	-33.9171	42.1552	-191.344	-11.1166	27.491	-171.927	-38.4479	29.7703	-167.14	-35.819	62.4235	-191.608	7.73633	84.2408	-191.651	-13.7538	113.983	-153.921	1.82131	104.032	
168	1.4	-131.323	-30.2701	88.2632	-124.234	-32.1628	52.5563	-135.886	-20.8649	17.5524	-143.52	-15.9089	-7.25287	-130.661	34.0074	39.6387	-126.714	44.4874	12.5736	-122.727	54.4162	-11.782	-164.418	33.054	26.0485	-166.342	37.1481	-2.96508	-167.934	42.8391	-37.6207	-179.483	0.90787	16.2579	-165.2	-24.5198	9.48939	-158.156	-36.2884	39.9568	-193.724	-15.8998	26.9182	-170.586	-41.1967	31.3655	-166.278	-36.1126	60.3276	-191.354	4.70572	84.1165	-193.831	-13.5314	112.205	-154.781	1.58539	105.609	
169	1.40833	-127.025	-34.9268	89.9718	-127.668	-32.0081	51.2208	-137.551	-23.8524	17.5012	-145.629	-22.1832	-4.65552	-130.82	29.8574	36.0815	-123.603	38.2854	10.2378	-120.741	45.6615	-14.6151	-168.042	28.286	25.1853	-164.195	32.4032	-7.99428	-167.616	34.4131	-36.5511	-181.205	-1.48875	19.4048	-172.031	-32.7987	8.78853	-161.545	-43.9716	45.94	-192.045	-18.7871	26.7014	-176.755	-47.734	33.0022	-170.156	-42.5855	63.1587	-189.308	3.10984	83.1362	-190.226	-12.2352	115.196	-156.3	0.965621	102.777	
170	1.41667	-127.319	-33.4138	86.3413	-122.048	-38.577	49.0463	-133.217	-33.5309	17.2155	-148.96	-28.7624	-7.73991	-132.017	24.6344	28.6145	-126.634	30.5672	5.29954	-123.505	37.3218	-22.3529	-168.882	22.3224	18.8208	-165.37	23.8481	-12.6243	-173.23	20.692	-41.1199	-183.328	-13.1655	14.0588	-170.543	-42.662	11.6859	-162.099	-51.8861	42.3016	-197.82	-26.61	27.6253	-177.979	-51.5613	32.9193	-170.877	-45.0968	66.3963	-192.81	-0.537251	80.5563	-192.403	-13.0764	113.225	-155.992	-1.01556	101.123	
171	1.425	-126.234	-37.2111	88.3126	-125.337	-43.7906	51.4919	-138.779	-39.9844	17.5886	-150.47	-40.2411	-2.41589	-132.439	15.8712	23.703	-130.447	19.4654	-0.30893	-126.189	24.9764	-28.983	-169.188	12.9511	16.1243	-168.911	10.3506	-12.0584	-173.199	6.50966	-46.6665	-182.327	-20.6431	16.6685	-175.073	-50.3475	11.3325	-162.271	-62.2631	47.6123	-199.044	-34.0324	30.3345	-178.772	-61.9301	37.3822	-171.116	-54.6262	65.9721	-192.478	-2.56459	76.0959	-189.639	-14.617	115.227	-151.406	-4.71869	98.6292	
172	1.43333	-126.143	-42.1439	88.4574	-121.578	-52.8781	50.9315	-139.14	-50.8801	18.2516	-152.38	-54.5892	-4.62168	-134.816	2.41706	23.0739	-132.425	4.33972	-4.89246	-126.658	5.80214	-31.0853	-172.268	-2.17	15.0592	-171.238	-7.05514	-16.9203	-177.852	-14.5319	-50.6111	-183.003	-35.5203	15.0227	-174.219	-66.0226	16.9997	-164.736	-73.5022	49.7732	-201.8	-47.6434	32.8856	-179.368	-72.7513	43.9008	-170.696	-61.1294	75.1198	-187.755	-8.35465	75.4057	-189.323	-16.2538	111.463	-155.794	-8.82069	96.6706	
173	1.44167	-128.742	-42.1742	88.6438	-126.468	-54.4048	53.1465	-138.647	-58.799	17.1137	-155.485	-62.2703	0.59414	-139.109	-4.90854	19.6833	-133.016	-5.23421	-11.4875	-134.256	-6.42975	-35.8346	-173.831	-10.6352	12.8948	-175.257	-18.2734	-20.3609	-179.102	-27.7638	-51.4431	-184.568	-42.3338	20.0462	-177.904	-74.8089	20.0094	-158.65	-78.0758	53.0786	-198.978	-55.468	33.6819	-177.794	-78.4057	47.653	-169.696	-66.6527	77.5786	-188.029	-11.3957	77.4867	-187.176	-18.1939	108.673	-151.407	-8.08224	92.1009	
174	1.45	-128.306	-42.4544	88.327	-126.822	-55.2989	54.7561	-138.647	-63.7792	19.0908	-158.379	-67.1134	5.21215	-137.188	-9.72766	19.3392	-137.191	-13.7983	-12.2173	-133.853	-17.1701	-40.5388	-175.647	-17.1865	11.1903	-179.265	-28.5292	-21.0255	-184.254	-38.0331	-46.2782	-188.412	-51.771	20.2413	-171.917	-79.3698	24.2425	-159.821	-80.536	57.4205	-199.504	-62.324	36.8144	-176.712	-82.5262	49.4164	-167.976	-69.6526	78.6147	-193.33	-14.2184	74.241	-189.388	-17.6526	109.981	-153.527	-9.40167	92.1425	
175	1.45833	-127.546	-42.6225	91.6122	-123.416	-58.6484	53.7665	-140.449	-68.1447	24.0353	-156.239	-76.2719	3.36841	-142.831	-15.3693	15.1272	-134.896	-19.6403	-9.73629	-132.584	-26.1559	-39.5304	-178.203	-23.216	9.27338	-181.905	-34.7858	-16.7975	-185.569	-49.5017	-48.6453	-187.173	-56.1989	21.802	-170.994	-83.6865	27.4538	-158.61	-82.2927	58.1718	-199.728	-68.5684	38.8379	-177.483	-86.8314	53.7486	-165.133	-72.2208	80.9842	-191.347	-18.4026	77.7231	-187.14	-18.2662	108.932	-154.533	-10.2463	91.5288	
